<svg width="674" height="53" viewBox="0 0 674 53" fill="none" xmlns="http://www.w3.org/2000/svg">
<rect x="185" width="200" height="53" rx="10" fill="#C9C9C9"/>
<path d="M26.4731 17.9335H28.8798V27.5601H26.4731V29.9668H24.0665V32.3734H14.4399V39.5934H12.0332V42H2.40665V39.5934H0V15.5269H2.40665V20.3402H4.8133V17.9335H7.21995V15.5269H2.40665V13.1202H24.0665V15.5269H26.4731V17.9335ZM14.4399 20.3402V27.5601H19.2532V20.3402H14.4399ZM60.1545 15.5269V17.9335H62.5611V25.1535H60.1545V27.5601H57.7478V29.9668H60.1545V32.3734H62.5611V39.5934H60.1545V42H57.7478V39.5934H55.3412V37.1867H52.9345V34.7801H50.5279V32.3734H48.1212V39.5934H45.7146V42H36.088V39.5934H33.6813V15.5269H36.088V20.3402H38.4946V17.9335H40.9013V15.5269H36.088V13.1202H57.7478V15.5269H60.1545ZM48.1212 22.7468H55.3412V20.3402H48.1212V22.7468ZM93.8358 13.1202V15.5269H96.2424V17.9335H93.8358V20.3402H81.8025V22.7468H93.8358V25.1535H96.2424V27.5601H93.8358V29.9668H81.8025V32.3734H93.8358V34.7801H96.2424V39.5934H93.8358V42H69.7693V39.5934H67.3626V15.5269H69.7693V20.3402H72.1759V17.9335H74.5826V15.5269H69.7693V13.1202H93.8358ZM127.517 13.1202V15.5269H129.924V17.9335H127.517V20.3402H115.484V22.7468H127.517V25.1535H129.924V37.1867H127.517V39.5934H125.11V42H103.451V39.5934H101.044V32.3734H103.451V29.9668H120.297V27.5601H103.451V25.1535H101.044V17.9335H103.451V20.3402H105.857V17.9335H108.264V15.5269H105.857V13.1202H127.517ZM161.198 13.1202V15.5269H163.605V17.9335H161.198V20.3402H149.165V22.7468H161.198V25.1535H163.605V37.1867H161.198V39.5934H158.792V42H137.132V39.5934H134.725V32.3734H137.132V29.9668H153.978V27.5601H137.132V25.1535H134.725V17.9335H137.132V20.3402H139.539V17.9335H141.945V15.5269H139.539V13.1202H161.198ZM228.561 13.1202V15.5269H230.968V17.9335H228.561V20.3402H216.528V22.7468H228.561V25.1535H230.968V37.1867H228.561V39.5934H226.154V42H204.495V39.5934H202.088V32.3734H204.495V29.9668H221.341V27.5601H204.495V25.1535H202.088V17.9335H204.495V20.3402H206.901V17.9335H209.308V15.5269H206.901V13.1202H228.561ZM262.242 17.9335H264.649V27.5601H262.242V29.9668H259.836V32.3734H250.209V39.5934H247.803V42H238.176V39.5934H235.769V15.5269H238.176V20.3402H240.583V17.9335H242.989V15.5269H238.176V13.1202H259.836V15.5269H262.242V17.9335ZM250.209 20.3402V27.5601H255.022V20.3402H250.209ZM295.924 15.5269V17.9335H298.33V39.5934H295.924V42H293.517V39.5934H291.11V29.9668H283.89V39.5934H281.484V42H271.857V39.5934H269.451V17.9335H271.857V20.3402H274.264V17.9335H276.671V15.5269H274.264V13.1202H293.517V15.5269H295.924ZM291.11 22.7468V20.3402H283.89V22.7468H291.11ZM329.605 13.1202V15.5269H332.012V17.9335H329.605V20.3402H317.572V32.3734H329.605V34.7801H332.012V39.5934H329.605V42H307.945V39.5934H305.539V37.1867H303.132V17.9335H305.539V20.3402H307.945V17.9335H310.352V15.5269H307.945V13.1202H329.605ZM363.286 13.1202V15.5269H365.693V17.9335H363.286V20.3402H351.253V22.7468H363.286V25.1535H365.693V27.5601H363.286V29.9668H351.253V32.3734H363.286V34.7801H365.693V39.5934H363.286V42H339.22V39.5934H336.813V15.5269H339.22V20.3402H341.627V17.9335H344.033V15.5269H339.22V13.1202H363.286ZM430.649 13.1202V15.5269H433.056V20.3402H430.649V22.7468H425.836V39.5934H423.429V42H413.802V39.5934H411.396V22.7468H406.583V20.3402H408.989V17.9335H411.396V15.5269H406.583V13.1202H430.649ZM406.583 15.5269V20.3402H404.176V15.5269H406.583ZM464.33 15.5269V17.9335H466.737V37.1867H464.33V39.5934H461.924V42H442.671V39.5934H440.264V37.1867H437.857V17.9335H440.264V20.3402H442.671V17.9335H445.077V15.5269H442.671V13.1202H461.924V15.5269H464.33ZM459.517 32.3734V20.3402H452.297V32.3734H459.517ZM531.693 13.1202V15.5269H534.1V17.9335H531.693V20.3402H519.66V22.7468H531.693V25.1535H534.1V37.1867H531.693V39.5934H529.286V42H507.626V39.5934H505.22V32.3734H507.626V29.9668H524.473V27.5601H507.626V25.1535H505.22V17.9335H507.626V20.3402H510.033V17.9335H512.44V15.5269H510.033V13.1202H531.693ZM565.374 13.1202V15.5269H567.781V20.3402H565.374V22.7468H560.561V39.5934H558.154V42H548.528V39.5934H546.121V22.7468H541.308V20.3402H543.714V17.9335H546.121V15.5269H541.308V13.1202H565.374ZM541.308 15.5269V20.3402H538.901V15.5269H541.308ZM599.056 15.5269V17.9335H601.462V39.5934H599.056V42H596.649V39.5934H594.242V29.9668H587.022V39.5934H584.616V42H574.989V39.5934H572.583V17.9335H574.989V20.3402H577.396V17.9335H579.802V15.5269H577.396V13.1202H596.649V15.5269H599.056ZM594.242 22.7468V20.3402H587.022V22.7468H594.242ZM632.737 15.5269V17.9335H635.144V25.1535H632.737V27.5601H630.33V29.9668H632.737V32.3734H635.144V39.5934H632.737V42H630.33V39.5934H627.924V37.1867H625.517V34.7801H623.11V32.3734H620.704V39.5934H618.297V42H608.671V39.5934H606.264V15.5269H608.671V20.3402H611.077V17.9335H613.484V15.5269H608.671V13.1202H630.33V15.5269H632.737ZM620.704 22.7468H627.924V20.3402H620.704V22.7468ZM666.418 13.1202V15.5269H668.825V20.3402H666.418V22.7468H661.605V39.5934H659.198V42H649.572V39.5934H647.165V22.7468H642.352V20.3402H644.758V17.9335H647.165V15.5269H642.352V13.1202H666.418ZM642.352 15.5269V20.3402H639.945V15.5269H642.352Z" fill="black"/>
</svg>
