<svg width="1230" height="65" viewBox="0 0 1230 65" fill="none" xmlns="http://www.w3.org/2000/svg">
<path d="M60.2983 0.0633382V4.70167H64.9367V13.9783H60.2983V18.6167H32.4683V23.255H60.2983V27.8933H64.9367V55.7233H60.2983V60.3617H55.66V65H4.63833V60.3617H0V46.4467H4.63833V41.8083H41.745V37.17H4.63833V32.5317H0V9.34001H4.63833V13.9783H9.27667V9.34001H13.915V4.70167H9.27667V0.0633382H60.2983ZM134.53 0.0633382V4.70167H139.168V60.3617H134.53V65H120.615V60.3617H115.976V46.4467H111.338V41.8083H106.7V60.3617H102.061V65H78.8698V60.3617H74.2314V4.70167H78.8698V13.9783H83.5081V9.34001H88.1464V4.70167H78.8698V0.0633382H102.061V4.70167H106.7V23.255H111.338V27.8933H115.976V4.70167H120.615V0.0633382H134.53ZM208.761 9.34001V13.9783H213.4V60.3617H208.761V65H199.485V60.3617H194.846V32.5317H180.931V60.3617H176.293V65H153.101V60.3617H148.463V9.34001H153.101V13.9783H157.74V9.34001H162.378V4.70167H157.74V0.0633382H199.485V4.70167H204.123V9.34001H208.761ZM180.931 13.9783V23.255H194.846V13.9783H180.931ZM282.993 0.0633382V4.70167H287.631V18.6167H282.993V23.255H278.354V27.8933H273.716V32.5317H278.354V37.17H282.993V41.8083H287.631V60.3617H282.993V65H273.716V60.3617H269.078V55.7233H264.439V51.085H259.801V46.4467H255.163V60.3617H250.524V65H227.333V60.3617H222.694V4.70167H227.333V13.9783H231.971V9.34001H236.609V4.70167H227.333V0.0633382H250.524V4.70167H255.163V18.6167H259.801V13.9783H264.439V9.34001H269.078V4.70167H273.716V0.0633382H282.993ZM357.224 0.0633382V4.70167H361.862V9.34001H357.224V13.9783H329.394V23.255H357.224V27.8933H361.862V32.5317H357.224V37.17H329.394V46.4467H357.224V51.085H361.862V60.3617H357.224V65H301.564V60.3617H296.926V4.70167H301.564V13.9783H306.202V9.34001H310.841V4.70167H301.564V0.0633382H357.224ZM496.37 9.34001V13.9783H501.008V60.3617H496.37V65H487.093V60.3617H482.455V32.5317H468.54V60.3617H463.901V65H440.71V60.3617H436.071V9.34001H440.71V13.9783H445.348V9.34001H449.986V4.70167H445.348V0.0633382H487.093V4.70167H491.731V9.34001H496.37ZM468.54 13.9783V23.255H482.455V13.9783H468.54ZM570.601 0.0633382V4.70167H575.239V60.3617H570.601V65H556.686V60.3617H552.048V46.4467H547.409V41.8083H542.771V60.3617H538.133V65H514.941V60.3617H510.303V4.70167H514.941V13.9783H519.579V9.34001H524.218V4.70167H514.941V0.0633382H538.133V4.70167H542.771V23.255H547.409V27.8933H552.048V4.70167H556.686V0.0633382H570.601ZM644.832 9.34001V13.9783H649.471V55.7233H644.832V60.3617H640.194V65H589.172V60.3617H584.534V4.70167H589.172V13.9783H593.811V9.34001H598.449V4.70167H589.172V0.0633382H635.556V4.70167H640.194V9.34001H644.832ZM630.917 18.6167H626.279V13.9783H617.002V46.4467H626.279V41.8083H630.917V18.6167ZM779.339 46.4467V51.085H783.978V60.3617H779.339V65H728.318V60.3617H723.68V4.70167H728.318V13.9783H732.956V9.34001H737.595V4.70167H728.318V0.0633382H751.51V4.70167H756.148V46.4467H779.339ZM853.589 9.34001V13.9783H858.227V60.3617H853.589V65H844.312V60.3617H839.674V32.5317H825.759V60.3617H821.121V65H797.929V60.3617H793.291V9.34001H797.929V13.9783H802.567V9.34001H807.206V4.70167H802.567V0.0633382H844.312V4.70167H848.951V9.34001H853.589ZM825.759 13.9783V23.255H839.674V13.9783H825.759ZM927.821 9.34001V13.9783H932.459V55.7233H927.821V60.3617H923.182V65H872.161V60.3617H867.522V4.70167H872.161V13.9783H876.799V9.34001H881.437V4.70167H872.161V0.0633382H918.544V4.70167H923.182V9.34001H927.821ZM913.906 18.6167H909.267V13.9783H899.991V46.4467H909.267V41.8083H913.906V18.6167ZM1002.05 9.34001V13.9783H1006.69V55.7233H1002.05V60.3617H997.414V65H946.392V60.3617H941.754V4.70167H946.392V13.9783H951.03V9.34001H955.669V4.70167H946.392V0.0633382H992.775V4.70167H997.414V9.34001H1002.05ZM988.137 18.6167H983.499V13.9783H974.222V46.4467H983.499V41.8083H988.137V18.6167ZM1076.28 0.0633382V4.70167H1080.92V9.34001H1076.28V13.9783H1048.45V23.255H1076.28V27.8933H1080.92V32.5317H1076.28V37.17H1048.45V46.4467H1076.28V51.085H1080.92V60.3617H1076.28V65H1020.62V60.3617H1015.99V4.70167H1020.62V13.9783H1025.26V9.34001H1029.9V4.70167H1020.62V0.0633382H1076.28ZM1150.51 4.70167V9.34001H1155.15V27.8933H1150.51V32.5317H1145.88V37.17H1150.51V41.8083H1155.15V60.3617H1150.51V65H1141.24V60.3617H1136.6V55.7233H1131.96V51.085H1127.32V46.4467H1122.68V60.3617H1118.05V65H1094.85V60.3617H1090.22V4.70167H1094.85V13.9783H1099.49V9.34001H1104.13V4.70167H1094.85V0.0633382H1145.88V4.70167H1150.51ZM1136.6 23.255V13.9783H1122.68V23.255H1136.6ZM1224.75 0.0633382V4.70167H1229.38V13.9783H1224.75V18.6167H1196.92V23.255H1224.75V27.8933H1229.38V55.7233H1224.75V60.3617H1220.11V65H1169.09V60.3617H1164.45V46.4467H1169.09V41.8083H1206.19V37.17H1169.09V32.5317H1164.45V9.34001H1169.09V13.9783H1173.72V9.34001H1178.36V4.70167H1173.72V0.0633382H1224.75Z" fill="#49DEFF"/>
</svg>
