<svg width="163" height="19" viewBox="0 0 163 19" fill="none" xmlns="http://www.w3.org/2000/svg">
<mask id="path-1-outside-1_22_26" maskUnits="userSpaceOnUse" x="-8" y="-8" width="179" height="35" fill="black">
<rect fill="white" x="-8" y="-8" width="179" height="35"/>
<path d="M17.4109 0.00629019V1.5891H18.9937V4.75472H17.4109V6.33753H14.2453V17.4172H12.6625V19H6.33124V17.4172H4.74843V6.33753H1.58281V4.75472H3.16562V3.17191H4.74843V1.5891H1.58281V0.00629019H17.4109ZM1.58281 1.5891V4.75472H0V1.5891H1.58281ZM39.5625 0.00629019V1.5891H41.1453V15.8344H39.5625V17.4172H37.9797V19H25.3172V17.4172H23.7344V15.8344H22.1516V1.5891H23.7344V4.75472H25.3172V3.17191H26.9V1.5891H23.7344V0.00629019H30.0656V1.5891H31.6485V12.6688H34.8141V1.5891H36.3969V0.00629019H39.5625ZM61.7141 0.00629019V1.5891H63.2969V4.75472H61.7141V6.33753H58.5485V17.4172H56.9657V19H50.6344V17.4172H49.0516V6.33753H45.886V4.75472H47.4688V3.17191H49.0516V1.5891H45.886V0.00629019H61.7141ZM45.886 1.5891V4.75472H44.3032V1.5891H45.886ZM83.8657 1.5891V3.17191H85.4485V15.8344H83.8657V17.4172H82.2829V19H69.6204V17.4172H68.0376V15.8344H66.4548V3.17191H68.0376V4.75472H69.6204V3.17191H71.2032V1.5891H69.6204V0.00629019H82.2829V1.5891H83.8657ZM80.7001 12.6688V4.75472H75.9517V12.6688H80.7001ZM106.017 1.5891V3.17191H107.6V7.92034H106.017V9.50315H104.434V11.086H106.017V12.6688H107.6V17.4172H106.017V19H104.434V17.4172H102.852V15.8344H101.269V14.2516H99.6861V12.6688H98.1033V17.4172H96.5204V19H90.1892V17.4172H88.6064V1.5891H90.1892V4.75472H91.772V3.17191H93.3548V1.5891H90.1892V0.00629019H104.434V1.5891H106.017ZM98.1033 6.33753H102.852V4.75472H98.1033V6.33753ZM118.672 0.00629019V1.5891H120.255V17.4172H118.672V19H112.341V17.4172H110.758V1.5891H112.341V4.75472H113.924V3.17191H115.506V1.5891H112.341V0.00629019H118.672ZM140.834 1.5891V3.17191H142.417V17.4172H140.834V19H139.252V17.4172H137.669V11.086H132.92V17.4172H131.338V19H125.006V17.4172H123.424V3.17191H125.006V4.75472H126.589V3.17191H128.172V1.5891H126.589V0.00629019H139.252V1.5891H140.834ZM137.669 6.33753V4.75472H132.92V6.33753H137.669ZM161.403 12.6688V14.2516H162.986V17.4172H161.403V19H147.158V17.4172H145.575V1.5891H147.158V4.75472H148.741V3.17191H150.324V1.5891H147.158V0.00629019H153.489V1.5891H155.072V12.6688H161.403Z"/>
</mask>
<path d="M17.4109 0.00629019V1.5891H18.9937V4.75472H17.4109V6.33753H14.2453V17.4172H12.6625V19H6.33124V17.4172H4.74843V6.33753H1.58281V4.75472H3.16562V3.17191H4.74843V1.5891H1.58281V0.00629019H17.4109ZM1.58281 1.5891V4.75472H0V1.5891H1.58281ZM39.5625 0.00629019V1.5891H41.1453V15.8344H39.5625V17.4172H37.9797V19H25.3172V17.4172H23.7344V15.8344H22.1516V1.5891H23.7344V4.75472H25.3172V3.17191H26.9V1.5891H23.7344V0.00629019H30.0656V1.5891H31.6485V12.6688H34.8141V1.5891H36.3969V0.00629019H39.5625ZM61.7141 0.00629019V1.5891H63.2969V4.75472H61.7141V6.33753H58.5485V17.4172H56.9657V19H50.6344V17.4172H49.0516V6.33753H45.886V4.75472H47.4688V3.17191H49.0516V1.5891H45.886V0.00629019H61.7141ZM45.886 1.5891V4.75472H44.3032V1.5891H45.886ZM83.8657 1.5891V3.17191H85.4485V15.8344H83.8657V17.4172H82.2829V19H69.6204V17.4172H68.0376V15.8344H66.4548V3.17191H68.0376V4.75472H69.6204V3.17191H71.2032V1.5891H69.6204V0.00629019H82.2829V1.5891H83.8657ZM80.7001 12.6688V4.75472H75.9517V12.6688H80.7001ZM106.017 1.5891V3.17191H107.6V7.92034H106.017V9.50315H104.434V11.086H106.017V12.6688H107.6V17.4172H106.017V19H104.434V17.4172H102.852V15.8344H101.269V14.2516H99.6861V12.6688H98.1033V17.4172H96.5204V19H90.1892V17.4172H88.6064V1.5891H90.1892V4.75472H91.772V3.17191H93.3548V1.5891H90.1892V0.00629019H104.434V1.5891H106.017ZM98.1033 6.33753H102.852V4.75472H98.1033V6.33753ZM118.672 0.00629019V1.5891H120.255V17.4172H118.672V19H112.341V17.4172H110.758V1.5891H112.341V4.75472H113.924V3.17191H115.506V1.5891H112.341V0.00629019H118.672ZM140.834 1.5891V3.17191H142.417V17.4172H140.834V19H139.252V17.4172H137.669V11.086H132.92V17.4172H131.338V19H125.006V17.4172H123.424V3.17191H125.006V4.75472H126.589V3.17191H128.172V1.5891H126.589V0.00629019H139.252V1.5891H140.834ZM137.669 6.33753V4.75472H132.92V6.33753H137.669ZM161.403 12.6688V14.2516H162.986V17.4172H161.403V19H147.158V17.4172H145.575V1.5891H147.158V4.75472H148.741V3.17191H150.324V1.5891H147.158V0.00629019H153.489V1.5891H155.072V12.6688H161.403Z" fill="black"/>
<path d="M17.4109 0.00629019H25.4109V-7.99371H17.4109V0.00629019ZM17.4109 1.5891H9.4109V9.5891H17.4109V1.5891ZM18.9937 1.5891H26.9937V-6.4109H18.9937V1.5891ZM18.9937 4.75472V12.7547H26.9937V4.75472H18.9937ZM17.4109 4.75472V-3.24528H9.4109V4.75472H17.4109ZM17.4109 6.33753V14.3375H25.4109V6.33753H17.4109ZM14.2453 6.33753V-1.66247H6.24528V6.33753H14.2453ZM14.2453 17.4172V25.4172H22.2453V17.4172H14.2453ZM12.6625 17.4172V9.41719H4.66247V17.4172H12.6625ZM12.6625 19V27H20.6625V19H12.6625ZM6.33124 19H-1.66876V27H6.33124V19ZM6.33124 17.4172H14.3312V9.41719H6.33124V17.4172ZM4.74843 17.4172H-3.25157V25.4172H4.74843V17.4172ZM4.74843 6.33753H12.7484V-1.66247H4.74843V6.33753ZM1.58281 6.33753H-6.41719V14.3375H1.58281V6.33753ZM1.58281 4.75472V-3.24528H-6.41719V4.75472H1.58281ZM3.16562 4.75472V12.7547H11.1656V4.75472H3.16562ZM3.16562 3.17191V-4.82809H-4.83438V3.17191H3.16562ZM4.74843 3.17191V11.1719H12.7484V3.17191H4.74843ZM4.74843 1.5891H12.7484V-6.4109H4.74843V1.5891ZM1.58281 1.5891H-6.41719V9.5891H1.58281V1.5891ZM1.58281 0.00629019V-7.99371H-6.41719V0.00629019H1.58281ZM1.58281 1.5891H9.58281V-6.4109H1.58281V1.5891ZM1.58281 4.75472V12.7547H9.58281V4.75472H1.58281ZM0 4.75472H-8V12.7547H0V4.75472ZM0 1.5891V-6.4109H-8V1.5891H0ZM9.4109 0.00629019V1.5891H25.4109V0.00629019H9.4109ZM17.4109 9.5891H18.9937V-6.4109H17.4109V9.5891ZM10.9937 1.5891V4.75472H26.9937V1.5891H10.9937ZM18.9937 -3.24528H17.4109V12.7547H18.9937V-3.24528ZM9.4109 4.75472V6.33753H25.4109V4.75472H9.4109ZM17.4109 -1.66247H14.2453V14.3375H17.4109V-1.66247ZM6.24528 6.33753V17.4172H22.2453V6.33753H6.24528ZM14.2453 9.41719H12.6625V25.4172H14.2453V9.41719ZM4.66247 17.4172V19H20.6625V17.4172H4.66247ZM12.6625 11H6.33124V27H12.6625V11ZM14.3312 19V17.4172H-1.66876V19H14.3312ZM6.33124 9.41719H4.74843V25.4172H6.33124V9.41719ZM12.7484 17.4172V6.33753H-3.25157V17.4172H12.7484ZM4.74843 -1.66247H1.58281V14.3375H4.74843V-1.66247ZM9.58281 6.33753V4.75472H-6.41719V6.33753H9.58281ZM1.58281 12.7547H3.16562V-3.24528H1.58281V12.7547ZM11.1656 4.75472V3.17191H-4.83438V4.75472H11.1656ZM3.16562 11.1719H4.74843V-4.82809H3.16562V11.1719ZM12.7484 3.17191V1.5891H-3.25157V3.17191H12.7484ZM4.74843 -6.4109H1.58281V9.5891H4.74843V-6.4109ZM9.58281 1.5891V0.00629019H-6.41719V1.5891H9.58281ZM1.58281 8.00629H17.4109V-7.99371H1.58281V8.00629ZM-6.41719 1.5891V4.75472H9.58281V1.5891H-6.41719ZM1.58281 -3.24528H0V12.7547H1.58281V-3.24528ZM8 4.75472V1.5891H-8V4.75472H8ZM0 9.5891H1.58281V-6.4109H0V9.5891ZM39.5625 0.00629019H47.5625V-7.99371H39.5625V0.00629019ZM39.5625 1.5891H31.5625V9.5891H39.5625V1.5891ZM41.1453 1.5891H49.1453V-6.4109H41.1453V1.5891ZM41.1453 15.8344V23.8344H49.1453V15.8344H41.1453ZM39.5625 15.8344V7.83438H31.5625V15.8344H39.5625ZM39.5625 17.4172V25.4172H47.5625V17.4172H39.5625ZM37.9797 17.4172V9.41719H29.9797V17.4172H37.9797ZM37.9797 19V27H45.9797V19H37.9797ZM25.3172 19H17.3172V27H25.3172V19ZM25.3172 17.4172H33.3172V9.41719H25.3172V17.4172ZM23.7344 17.4172H15.7344V25.4172H23.7344V17.4172ZM23.7344 15.8344H31.7344V7.83438H23.7344V15.8344ZM22.1516 15.8344H14.1516V23.8344H22.1516V15.8344ZM22.1516 1.5891V-6.4109H14.1516V1.5891H22.1516ZM23.7344 1.5891H31.7344V-6.4109H23.7344V1.5891ZM23.7344 4.75472H15.7344V12.7547H23.7344V4.75472ZM25.3172 4.75472V12.7547H33.3172V4.75472H25.3172ZM25.3172 3.17191V-4.82809H17.3172V3.17191H25.3172ZM26.9 3.17191V11.1719H34.9V3.17191H26.9ZM26.9 1.5891H34.9V-6.4109H26.9V1.5891ZM23.7344 1.5891H15.7344V9.5891H23.7344V1.5891ZM23.7344 0.00629019V-7.99371H15.7344V0.00629019H23.7344ZM30.0656 0.00629019H38.0656V-7.99371H30.0656V0.00629019ZM30.0656 1.5891H22.0656V9.5891H30.0656V1.5891ZM31.6485 1.5891H39.6485V-6.4109H31.6485V1.5891ZM31.6485 12.6688H23.6485V20.6688H31.6485V12.6688ZM34.8141 12.6688V20.6688H42.8141V12.6688H34.8141ZM34.8141 1.5891V-6.4109H26.8141V1.5891H34.8141ZM36.3969 1.5891V9.5891H44.3969V1.5891H36.3969ZM36.3969 0.00629019V-7.99371H28.3969V0.00629019H36.3969ZM31.5625 0.00629019V1.5891H47.5625V0.00629019H31.5625ZM39.5625 9.5891H41.1453V-6.4109H39.5625V9.5891ZM33.1453 1.5891V15.8344H49.1453V1.5891H33.1453ZM41.1453 7.83438H39.5625V23.8344H41.1453V7.83438ZM31.5625 15.8344V17.4172H47.5625V15.8344H31.5625ZM39.5625 9.41719H37.9797V25.4172H39.5625V9.41719ZM29.9797 17.4172V19H45.9797V17.4172H29.9797ZM37.9797 11H25.3172V27H37.9797V11ZM33.3172 19V17.4172H17.3172V19H33.3172ZM25.3172 9.41719H23.7344V25.4172H25.3172V9.41719ZM31.7344 17.4172V15.8344H15.7344V17.4172H31.7344ZM23.7344 7.83438H22.1516V23.8344H23.7344V7.83438ZM30.1516 15.8344V1.5891H14.1516V15.8344H30.1516ZM22.1516 9.5891H23.7344V-6.4109H22.1516V9.5891ZM15.7344 1.5891V4.75472H31.7344V1.5891H15.7344ZM23.7344 12.7547H25.3172V-3.24528H23.7344V12.7547ZM33.3172 4.75472V3.17191H17.3172V4.75472H33.3172ZM25.3172 11.1719H26.9V-4.82809H25.3172V11.1719ZM34.9 3.17191V1.5891H18.9V3.17191H34.9ZM26.9 -6.4109H23.7344V9.5891H26.9V-6.4109ZM31.7344 1.5891V0.00629019H15.7344V1.5891H31.7344ZM23.7344 8.00629H30.0656V-7.99371H23.7344V8.00629ZM22.0656 0.00629019V1.5891H38.0656V0.00629019H22.0656ZM30.0656 9.5891H31.6485V-6.4109H30.0656V9.5891ZM23.6485 1.5891V12.6688H39.6485V1.5891H23.6485ZM31.6485 20.6688H34.8141V4.66876H31.6485V20.6688ZM42.8141 12.6688V1.5891H26.8141V12.6688H42.8141ZM34.8141 9.5891H36.3969V-6.4109H34.8141V9.5891ZM44.3969 1.5891V0.00629019H28.3969V1.5891H44.3969ZM36.3969 8.00629H39.5625V-7.99371H36.3969V8.00629ZM61.7141 0.00629019H69.7141V-7.99371H61.7141V0.00629019ZM61.7141 1.5891H53.7141V9.5891H61.7141V1.5891ZM63.2969 1.5891H71.2969V-6.4109H63.2969V1.5891ZM63.2969 4.75472V12.7547H71.2969V4.75472H63.2969ZM61.7141 4.75472V-3.24528H53.7141V4.75472H61.7141ZM61.7141 6.33753V14.3375H69.7141V6.33753H61.7141ZM58.5485 6.33753V-1.66247H50.5485V6.33753H58.5485ZM58.5485 17.4172V25.4172H66.5485V17.4172H58.5485ZM56.9657 17.4172V9.41719H48.9657V17.4172H56.9657ZM56.9657 19V27H64.9657V19H56.9657ZM50.6344 19H42.6344V27H50.6344V19ZM50.6344 17.4172H58.6344V9.41719H50.6344V17.4172ZM49.0516 17.4172H41.0516V25.4172H49.0516V17.4172ZM49.0516 6.33753H57.0516V-1.66247H49.0516V6.33753ZM45.886 6.33753H37.886V14.3375H45.886V6.33753ZM45.886 4.75472V-3.24528H37.886V4.75472H45.886ZM47.4688 4.75472V12.7547H55.4688V4.75472H47.4688ZM47.4688 3.17191V-4.82809H39.4688V3.17191H47.4688ZM49.0516 3.17191V11.1719H57.0516V3.17191H49.0516ZM49.0516 1.5891H57.0516V-6.4109H49.0516V1.5891ZM45.886 1.5891H37.886V9.5891H45.886V1.5891ZM45.886 0.00629019V-7.99371H37.886V0.00629019H45.886ZM45.886 1.5891H53.886V-6.4109H45.886V1.5891ZM45.886 4.75472V12.7547H53.886V4.75472H45.886ZM44.3032 4.75472H36.3032V12.7547H44.3032V4.75472ZM44.3032 1.5891V-6.4109H36.3032V1.5891H44.3032ZM53.7141 0.00629019V1.5891H69.7141V0.00629019H53.7141ZM61.7141 9.5891H63.2969V-6.4109H61.7141V9.5891ZM55.2969 1.5891V4.75472H71.2969V1.5891H55.2969ZM63.2969 -3.24528H61.7141V12.7547H63.2969V-3.24528ZM53.7141 4.75472V6.33753H69.7141V4.75472H53.7141ZM61.7141 -1.66247H58.5485V14.3375H61.7141V-1.66247ZM50.5485 6.33753V17.4172H66.5485V6.33753H50.5485ZM58.5485 9.41719H56.9657V25.4172H58.5485V9.41719ZM48.9657 17.4172V19H64.9657V17.4172H48.9657ZM56.9657 11H50.6344V27H56.9657V11ZM58.6344 19V17.4172H42.6344V19H58.6344ZM50.6344 9.41719H49.0516V25.4172H50.6344V9.41719ZM57.0516 17.4172V6.33753H41.0516V17.4172H57.0516ZM49.0516 -1.66247H45.886V14.3375H49.0516V-1.66247ZM53.886 6.33753V4.75472H37.886V6.33753H53.886ZM45.886 12.7547H47.4688V-3.24528H45.886V12.7547ZM55.4688 4.75472V3.17191H39.4688V4.75472H55.4688ZM47.4688 11.1719H49.0516V-4.82809H47.4688V11.1719ZM57.0516 3.17191V1.5891H41.0516V3.17191H57.0516ZM49.0516 -6.4109H45.886V9.5891H49.0516V-6.4109ZM53.886 1.5891V0.00629019H37.886V1.5891H53.886ZM45.886 8.00629H61.7141V-7.99371H45.886V8.00629ZM37.886 1.5891V4.75472H53.886V1.5891H37.886ZM45.886 -3.24528H44.3032V12.7547H45.886V-3.24528ZM52.3032 4.75472V1.5891H36.3032V4.75472H52.3032ZM44.3032 9.5891H45.886V-6.4109H44.3032V9.5891ZM83.8657 1.5891H91.8657V-6.4109H83.8657V1.5891ZM83.8657 3.17191H75.8657V11.1719H83.8657V3.17191ZM85.4485 3.17191H93.4485V-4.82809H85.4485V3.17191ZM85.4485 15.8344V23.8344H93.4485V15.8344H85.4485ZM83.8657 15.8344V7.83438H75.8657V15.8344H83.8657ZM83.8657 17.4172V25.4172H91.8657V17.4172H83.8657ZM82.2829 17.4172V9.41719H74.2829V17.4172H82.2829ZM82.2829 19V27H90.2829V19H82.2829ZM69.6204 19H61.6204V27H69.6204V19ZM69.6204 17.4172H77.6204V9.41719H69.6204V17.4172ZM68.0376 17.4172H60.0376V25.4172H68.0376V17.4172ZM68.0376 15.8344H76.0376V7.83438H68.0376V15.8344ZM66.4548 15.8344H58.4548V23.8344H66.4548V15.8344ZM66.4548 3.17191V-4.82809H58.4548V3.17191H66.4548ZM68.0376 3.17191H76.0376V-4.82809H68.0376V3.17191ZM68.0376 4.75472H60.0376V12.7547H68.0376V4.75472ZM69.6204 4.75472V12.7547H77.6204V4.75472H69.6204ZM69.6204 3.17191V-4.82809H61.6204V3.17191H69.6204ZM71.2032 3.17191V11.1719H79.2032V3.17191H71.2032ZM71.2032 1.5891H79.2032V-6.4109H71.2032V1.5891ZM69.6204 1.5891H61.6204V9.5891H69.6204V1.5891ZM69.6204 0.00629019V-7.99371H61.6204V0.00629019H69.6204ZM82.2829 0.00629019H90.2829V-7.99371H82.2829V0.00629019ZM82.2829 1.5891H74.2829V9.5891H82.2829V1.5891ZM80.7001 12.6688V20.6688H88.7001V12.6688H80.7001ZM80.7001 4.75472H88.7001V-3.24528H80.7001V4.75472ZM75.9517 4.75472V-3.24528H67.9517V4.75472H75.9517ZM75.9517 12.6688H67.9517V20.6688H75.9517V12.6688ZM75.8657 1.5891V3.17191H91.8657V1.5891H75.8657ZM83.8657 11.1719H85.4485V-4.82809H83.8657V11.1719ZM77.4485 3.17191V15.8344H93.4485V3.17191H77.4485ZM85.4485 7.83438H83.8657V23.8344H85.4485V7.83438ZM75.8657 15.8344V17.4172H91.8657V15.8344H75.8657ZM83.8657 9.41719H82.2829V25.4172H83.8657V9.41719ZM74.2829 17.4172V19H90.2829V17.4172H74.2829ZM82.2829 11H69.6204V27H82.2829V11ZM77.6204 19V17.4172H61.6204V19H77.6204ZM69.6204 9.41719H68.0376V25.4172H69.6204V9.41719ZM76.0376 17.4172V15.8344H60.0376V17.4172H76.0376ZM68.0376 7.83438H66.4548V23.8344H68.0376V7.83438ZM74.4548 15.8344V3.17191H58.4548V15.8344H74.4548ZM66.4548 11.1719H68.0376V-4.82809H66.4548V11.1719ZM60.0376 3.17191V4.75472H76.0376V3.17191H60.0376ZM68.0376 12.7547H69.6204V-3.24528H68.0376V12.7547ZM77.6204 4.75472V3.17191H61.6204V4.75472H77.6204ZM69.6204 11.1719H71.2032V-4.82809H69.6204V11.1719ZM79.2032 3.17191V1.5891H63.2032V3.17191H79.2032ZM71.2032 -6.4109H69.6204V9.5891H71.2032V-6.4109ZM77.6204 1.5891V0.00629019H61.6204V1.5891H77.6204ZM69.6204 8.00629H82.2829V-7.99371H69.6204V8.00629ZM74.2829 0.00629019V1.5891H90.2829V0.00629019H74.2829ZM82.2829 9.5891H83.8657V-6.4109H82.2829V9.5891ZM88.7001 12.6688V4.75472H72.7001V12.6688H88.7001ZM80.7001 -3.24528H75.9517V12.7547H80.7001V-3.24528ZM67.9517 4.75472V12.6688H83.9517V4.75472H67.9517ZM75.9517 20.6688H80.7001V4.66876H75.9517V20.6688ZM106.017 1.5891H114.017V-6.4109H106.017V1.5891ZM106.017 3.17191H98.0173V11.1719H106.017V3.17191ZM107.6 3.17191H115.6V-4.82809H107.6V3.17191ZM107.6 7.92034V15.9203H115.6V7.92034H107.6ZM106.017 7.92034V-0.0796647H98.0173V7.92034H106.017ZM106.017 9.50315V17.5031H114.017V9.50315H106.017ZM104.434 9.50315V1.50315H96.4345V9.50315H104.434ZM104.434 11.086H96.4345V19.086H104.434V11.086ZM106.017 11.086H114.017V3.08595H106.017V11.086ZM106.017 12.6688H98.0173V20.6688H106.017V12.6688ZM107.6 12.6688H115.6V4.66876H107.6V12.6688ZM107.6 17.4172V25.4172H115.6V17.4172H107.6ZM106.017 17.4172V9.41719H98.0173V17.4172H106.017ZM106.017 19V27H114.017V19H106.017ZM104.434 19H96.4345V27H104.434V19ZM104.434 17.4172H112.434V9.41719H104.434V17.4172ZM102.852 17.4172H94.8517V25.4172H102.852V17.4172ZM102.852 15.8344H110.852V7.83438H102.852V15.8344ZM101.269 15.8344H93.2689V23.8344H101.269V15.8344ZM101.269 14.2516H109.269V6.25157H101.269V14.2516ZM99.6861 14.2516H91.6861V22.2516H99.6861V14.2516ZM99.6861 12.6688H107.686V4.66876H99.6861V12.6688ZM98.1033 12.6688V4.66876H90.1033V12.6688H98.1033ZM98.1033 17.4172V25.4172H106.103V17.4172H98.1033ZM96.5204 17.4172V9.41719H88.5204V17.4172H96.5204ZM96.5204 19V27H104.52V19H96.5204ZM90.1892 19H82.1892V27H90.1892V19ZM90.1892 17.4172H98.1892V9.41719H90.1892V17.4172ZM88.6064 17.4172H80.6064V25.4172H88.6064V17.4172ZM88.6064 1.5891V-6.4109H80.6064V1.5891H88.6064ZM90.1892 1.5891H98.1892V-6.4109H90.1892V1.5891ZM90.1892 4.75472H82.1892V12.7547H90.1892V4.75472ZM91.772 4.75472V12.7547H99.772V4.75472H91.772ZM91.772 3.17191V-4.82809H83.772V3.17191H91.772ZM93.3548 3.17191V11.1719H101.355V3.17191H93.3548ZM93.3548 1.5891H101.355V-6.4109H93.3548V1.5891ZM90.1892 1.5891H82.1892V9.5891H90.1892V1.5891ZM90.1892 0.00629019V-7.99371H82.1892V0.00629019H90.1892ZM104.434 0.00629019H112.434V-7.99371H104.434V0.00629019ZM104.434 1.5891H96.4345V9.5891H104.434V1.5891ZM98.1033 6.33753H90.1033V14.3375H98.1033V6.33753ZM102.852 6.33753V14.3375H110.852V6.33753H102.852ZM102.852 4.75472H110.852V-3.24528H102.852V4.75472ZM98.1033 4.75472V-3.24528H90.1033V4.75472H98.1033ZM98.0173 1.5891V3.17191H114.017V1.5891H98.0173ZM106.017 11.1719H107.6V-4.82809H106.017V11.1719ZM99.6001 3.17191V7.92034H115.6V3.17191H99.6001ZM107.6 -0.0796647H106.017V15.9203H107.6V-0.0796647ZM98.0173 7.92034V9.50315H114.017V7.92034H98.0173ZM106.017 1.50315H104.434V17.5031H106.017V1.50315ZM96.4345 9.50315V11.086H112.434V9.50315H96.4345ZM104.434 19.086H106.017V3.08595H104.434V19.086ZM98.0173 11.086V12.6688H114.017V11.086H98.0173ZM106.017 20.6688H107.6V4.66876H106.017V20.6688ZM99.6001 12.6688V17.4172H115.6V12.6688H99.6001ZM107.6 9.41719H106.017V25.4172H107.6V9.41719ZM98.0173 17.4172V19H114.017V17.4172H98.0173ZM106.017 11H104.434V27H106.017V11ZM112.434 19V17.4172H96.4345V19H112.434ZM104.434 9.41719H102.852V25.4172H104.434V9.41719ZM110.852 17.4172V15.8344H94.8517V17.4172H110.852ZM102.852 7.83438H101.269V23.8344H102.852V7.83438ZM109.269 15.8344V14.2516H93.2689V15.8344H109.269ZM101.269 6.25157H99.6861V22.2516H101.269V6.25157ZM107.686 14.2516V12.6688H91.6861V14.2516H107.686ZM99.6861 4.66876H98.1033V20.6688H99.6861V4.66876ZM90.1033 12.6688V17.4172H106.103V12.6688H90.1033ZM98.1033 9.41719H96.5204V25.4172H98.1033V9.41719ZM88.5204 17.4172V19H104.52V17.4172H88.5204ZM96.5204 11H90.1892V27H96.5204V11ZM98.1892 19V17.4172H82.1892V19H98.1892ZM90.1892 9.41719H88.6064V25.4172H90.1892V9.41719ZM96.6064 17.4172V1.5891H80.6064V17.4172H96.6064ZM88.6064 9.5891H90.1892V-6.4109H88.6064V9.5891ZM82.1892 1.5891V4.75472H98.1892V1.5891H82.1892ZM90.1892 12.7547H91.772V-3.24528H90.1892V12.7547ZM99.772 4.75472V3.17191H83.772V4.75472H99.772ZM91.772 11.1719H93.3548V-4.82809H91.772V11.1719ZM101.355 3.17191V1.5891H85.3548V3.17191H101.355ZM93.3548 -6.4109H90.1892V9.5891H93.3548V-6.4109ZM98.1892 1.5891V0.00629019H82.1892V1.5891H98.1892ZM90.1892 8.00629H104.434V-7.99371H90.1892V8.00629ZM96.4345 0.00629019V1.5891H112.434V0.00629019H96.4345ZM104.434 9.5891H106.017V-6.4109H104.434V9.5891ZM98.1033 14.3375H102.852V-1.66247H98.1033V14.3375ZM110.852 6.33753V4.75472H94.8517V6.33753H110.852ZM102.852 -3.24528H98.1033V12.7547H102.852V-3.24528ZM90.1033 4.75472V6.33753H106.103V4.75472H90.1033ZM118.672 0.00629019H126.672V-7.99371H118.672V0.00629019ZM118.672 1.5891H110.672V9.5891H118.672V1.5891ZM120.255 1.5891H128.255V-6.4109H120.255V1.5891ZM120.255 17.4172V25.4172H128.255V17.4172H120.255ZM118.672 17.4172V9.41719H110.672V17.4172H118.672ZM118.672 19V27H126.672V19H118.672ZM112.341 19H104.341V27H112.341V19ZM112.341 17.4172H120.341V9.41719H112.341V17.4172ZM110.758 17.4172H102.758V25.4172H110.758V17.4172ZM110.758 1.5891V-6.4109H102.758V1.5891H110.758ZM112.341 1.5891H120.341V-6.4109H112.341V1.5891ZM112.341 4.75472H104.341V12.7547H112.341V4.75472ZM113.924 4.75472V12.7547H121.924V4.75472H113.924ZM113.924 3.17191V-4.82809H105.924V3.17191H113.924ZM115.506 3.17191V11.1719H123.506V3.17191H115.506ZM115.506 1.5891H123.506V-6.4109H115.506V1.5891ZM112.341 1.5891H104.341V9.5891H112.341V1.5891ZM112.341 0.00629019V-7.99371H104.341V0.00629019H112.341ZM110.672 0.00629019V1.5891H126.672V0.00629019H110.672ZM118.672 9.5891H120.255V-6.4109H118.672V9.5891ZM112.255 1.5891V17.4172H128.255V1.5891H112.255ZM120.255 9.41719H118.672V25.4172H120.255V9.41719ZM110.672 17.4172V19H126.672V17.4172H110.672ZM118.672 11H112.341V27H118.672V11ZM120.341 19V17.4172H104.341V19H120.341ZM112.341 9.41719H110.758V25.4172H112.341V9.41719ZM118.758 17.4172V1.5891H102.758V17.4172H118.758ZM110.758 9.5891H112.341V-6.4109H110.758V9.5891ZM104.341 1.5891V4.75472H120.341V1.5891H104.341ZM112.341 12.7547H113.924V-3.24528H112.341V12.7547ZM121.924 4.75472V3.17191H105.924V4.75472H121.924ZM113.924 11.1719H115.506V-4.82809H113.924V11.1719ZM123.506 3.17191V1.5891H107.506V3.17191H123.506ZM115.506 -6.4109H112.341V9.5891H115.506V-6.4109ZM120.341 1.5891V0.00629019H104.341V1.5891H120.341ZM112.341 8.00629H118.672V-7.99371H112.341V8.00629ZM140.834 1.5891H148.834V-6.4109H140.834V1.5891ZM140.834 3.17191H132.834V11.1719H140.834V3.17191ZM142.417 3.17191H150.417V-4.82809H142.417V3.17191ZM142.417 17.4172V25.4172H150.417V17.4172H142.417ZM140.834 17.4172V9.41719H132.834V17.4172H140.834ZM140.834 19V27H148.834V19H140.834ZM139.252 19H131.252V27H139.252V19ZM139.252 17.4172H147.252V9.41719H139.252V17.4172ZM137.669 17.4172H129.669V25.4172H137.669V17.4172ZM137.669 11.086H145.669V3.08595H137.669V11.086ZM132.92 11.086V3.08595H124.92V11.086H132.92ZM132.92 17.4172V25.4172H140.92V17.4172H132.92ZM131.338 17.4172V9.41719H123.338V17.4172H131.338ZM131.338 19V27H139.338V19H131.338ZM125.006 19H117.006V27H125.006V19ZM125.006 17.4172H133.006V9.41719H125.006V17.4172ZM123.424 17.4172H115.424V25.4172H123.424V17.4172ZM123.424 3.17191V-4.82809H115.424V3.17191H123.424ZM125.006 3.17191H133.006V-4.82809H125.006V3.17191ZM125.006 4.75472H117.006V12.7547H125.006V4.75472ZM126.589 4.75472V12.7547H134.589V4.75472H126.589ZM126.589 3.17191V-4.82809H118.589V3.17191H126.589ZM128.172 3.17191V11.1719H136.172V3.17191H128.172ZM128.172 1.5891H136.172V-6.4109H128.172V1.5891ZM126.589 1.5891H118.589V9.5891H126.589V1.5891ZM126.589 0.00629019V-7.99371H118.589V0.00629019H126.589ZM139.252 0.00629019H147.252V-7.99371H139.252V0.00629019ZM139.252 1.5891H131.252V9.5891H139.252V1.5891ZM137.669 6.33753V14.3375H145.669V6.33753H137.669ZM137.669 4.75472H145.669V-3.24528H137.669V4.75472ZM132.92 4.75472V-3.24528H124.92V4.75472H132.92ZM132.92 6.33753H124.92V14.3375H132.92V6.33753ZM132.834 1.5891V3.17191H148.834V1.5891H132.834ZM140.834 11.1719H142.417V-4.82809H140.834V11.1719ZM134.417 3.17191V17.4172H150.417V3.17191H134.417ZM142.417 9.41719H140.834V25.4172H142.417V9.41719ZM132.834 17.4172V19H148.834V17.4172H132.834ZM140.834 11H139.252V27H140.834V11ZM147.252 19V17.4172H131.252V19H147.252ZM139.252 9.41719H137.669V25.4172H139.252V9.41719ZM145.669 17.4172V11.086H129.669V17.4172H145.669ZM137.669 3.08595H132.92V19.086H137.669V3.08595ZM124.92 11.086V17.4172H140.92V11.086H124.92ZM132.92 9.41719H131.338V25.4172H132.92V9.41719ZM123.338 17.4172V19H139.338V17.4172H123.338ZM131.338 11H125.006V27H131.338V11ZM133.006 19V17.4172H117.006V19H133.006ZM125.006 9.41719H123.424V25.4172H125.006V9.41719ZM131.424 17.4172V3.17191H115.424V17.4172H131.424ZM123.424 11.1719H125.006V-4.82809H123.424V11.1719ZM117.006 3.17191V4.75472H133.006V3.17191H117.006ZM125.006 12.7547H126.589V-3.24528H125.006V12.7547ZM134.589 4.75472V3.17191H118.589V4.75472H134.589ZM126.589 11.1719H128.172V-4.82809H126.589V11.1719ZM136.172 3.17191V1.5891H120.172V3.17191H136.172ZM128.172 -6.4109H126.589V9.5891H128.172V-6.4109ZM134.589 1.5891V0.00629019H118.589V1.5891H134.589ZM126.589 8.00629H139.252V-7.99371H126.589V8.00629ZM131.252 0.00629019V1.5891H147.252V0.00629019H131.252ZM139.252 9.5891H140.834V-6.4109H139.252V9.5891ZM145.669 6.33753V4.75472H129.669V6.33753H145.669ZM137.669 -3.24528H132.92V12.7547H137.669V-3.24528ZM124.92 4.75472V6.33753H140.92V4.75472H124.92ZM132.92 14.3375H137.669V-1.66247H132.92V14.3375ZM161.403 12.6688H169.403V4.66876H161.403V12.6688ZM161.403 14.2516H153.403V22.2516H161.403V14.2516ZM162.986 14.2516H170.986V6.25157H162.986V14.2516ZM162.986 17.4172V25.4172H170.986V17.4172H162.986ZM161.403 17.4172V9.41719H153.403V17.4172H161.403ZM161.403 19V27H169.403V19H161.403ZM147.158 19H139.158V27H147.158V19ZM147.158 17.4172H155.158V9.41719H147.158V17.4172ZM145.575 17.4172H137.575V25.4172H145.575V17.4172ZM145.575 1.5891V-6.4109H137.575V1.5891H145.575ZM147.158 1.5891H155.158V-6.4109H147.158V1.5891ZM147.158 4.75472H139.158V12.7547H147.158V4.75472ZM148.741 4.75472V12.7547H156.741V4.75472H148.741ZM148.741 3.17191V-4.82809H140.741V3.17191H148.741ZM150.324 3.17191V11.1719H158.324V3.17191H150.324ZM150.324 1.5891H158.324V-6.4109H150.324V1.5891ZM147.158 1.5891H139.158V9.5891H147.158V1.5891ZM147.158 0.00629019V-7.99371H139.158V0.00629019H147.158ZM153.489 0.00629019H161.489V-7.99371H153.489V0.00629019ZM153.489 1.5891H145.489V9.5891H153.489V1.5891ZM155.072 1.5891H163.072V-6.4109H155.072V1.5891ZM155.072 12.6688H147.072V20.6688H155.072V12.6688ZM153.403 12.6688V14.2516H169.403V12.6688H153.403ZM161.403 22.2516H162.986V6.25157H161.403V22.2516ZM154.986 14.2516V17.4172H170.986V14.2516H154.986ZM162.986 9.41719H161.403V25.4172H162.986V9.41719ZM153.403 17.4172V19H169.403V17.4172H153.403ZM161.403 11H147.158V27H161.403V11ZM155.158 19V17.4172H139.158V19H155.158ZM147.158 9.41719H145.575V25.4172H147.158V9.41719ZM153.575 17.4172V1.5891H137.575V17.4172H153.575ZM145.575 9.5891H147.158V-6.4109H145.575V9.5891ZM139.158 1.5891V4.75472H155.158V1.5891H139.158ZM147.158 12.7547H148.741V-3.24528H147.158V12.7547ZM156.741 4.75472V3.17191H140.741V4.75472H156.741ZM148.741 11.1719H150.324V-4.82809H148.741V11.1719ZM158.324 3.17191V1.5891H142.324V3.17191H158.324ZM150.324 -6.4109H147.158V9.5891H150.324V-6.4109ZM155.158 1.5891V0.00629019H139.158V1.5891H155.158ZM147.158 8.00629H153.489V-7.99371H147.158V8.00629ZM145.489 0.00629019V1.5891H161.489V0.00629019H145.489ZM153.489 9.5891H155.072V-6.4109H153.489V9.5891ZM147.072 1.5891V12.6688H163.072V1.5891H147.072ZM155.072 20.6688H161.403V4.66876H155.072V20.6688Z" fill="white" mask="url(#path-1-outside-1_22_26)"/>
</svg>
